<?xml version="1.0" encoding="iso-8859-1"?>
<!-- Generator: Adobe Illustrator 19.0.0, SVG Export Plug-In . SVG Version: 6.00 Build 0)  -->
<svg version="1.1" id="Layer_1" xmlns="http://www.w3.org/2000/svg" xmlns:xlink="http://www.w3.org/1999/xlink" x="0px" y="0px"
	 viewBox="0 0 512 512" style="enable-background:new 0 0 512 512;" xml:space="preserve">
<g transform="translate(1 1)">
	<g>
		<path d="M476.867,229.4c-14.87,0-27.59,6.963-32.24,17.067h-24.08l11.093-11.093c3.413-3.413,3.413-8.533,0-11.947
			c-3.413-3.413-8.533-3.413-11.947,0l-23.04,23.04h-27.307l28.16-28.16c3.413-3.413,3.413-8.533,0-11.947
			c-3.413-3.413-8.533-3.413-11.947,0l-37.831,37.831l-10.809-5.404c-11.986-6.278-20.911-16.377-25.512-28.248l15.272-15.272H383
			c5.12,0,8.533-3.413,8.533-8.533S388.12,178.2,383,178.2h-39.253l17.067-17.067h30.72c5.12,0,8.533-3.413,8.533-8.533
			c0-5.12-3.413-8.533-8.533-8.533H377.88l16.807-16.807c2.706,1,5.749,1.447,8.793,1.447c8.533,0,18.773-4.267,26.453-11.093
			c13.653-13.653,16.213-32.427,5.973-42.667c-5.12-5.973-12.8-7.68-21.333-5.973c-6.827,1.707-14.507,5.973-20.48,11.947
			c-10.639,9.974-14.54,23.575-10.9,33.94l-17.26,17.26v-13.653c0-5.12-3.413-8.533-8.533-8.533s-8.533,3.413-8.533,8.533v30.72
			L331.8,166.253V127c0-5.12-3.413-8.533-8.533-8.533s-8.533,3.413-8.533,8.533v56.32l-6.827,6.827V178.2
			c0-3.413-2.56-5.973-5.12-7.68c-3.413-1.707-6.827-0.853-9.387,0.853l-4.267,3.413c-7.749,6.064-16.563,9.724-25.6,11v-21.24
			l40.107-40.107c3.413-3.413,3.413-8.533,0-11.947s-8.533-3.413-11.947,0l-28.16,28.16v-27.307l23.04-23.04
			c3.413-3.413,3.413-8.533,0-11.947c-3.413-3.413-8.533-3.413-11.947,0l-11.093,11.093v-24.08
			c10.103-4.65,17.067-17.37,17.067-32.24C280.6,14.36,269.507-1,255-1c-14.507,0-25.6,15.36-25.6,34.133
			c0,14.87,6.963,27.59,17.067,32.24v24.08L235.373,78.36c-3.413-3.413-8.533-3.413-11.947,0s-3.413,8.533,0,11.947l23.04,23.04
			v27.307l-28.16-28.16c-3.413-3.413-8.533-3.413-11.947,0s-3.413,8.533,0,11.947l40.107,40.107v20.812
			c-8.136-1.565-16.025-5.082-23.04-10.572l-4.267-3.413c-2.56-1.707-6.827-2.56-9.387-0.853c-3.413,1.707-5.12,4.267-5.12,7.68
			v13.653c0,0.28-0.01,0.559-0.015,0.839l-9.372-9.372V127c0-5.12-3.413-8.533-8.533-8.533S178.2,121.88,178.2,127v39.253
			l-17.067-17.067v-30.72c0-5.12-3.413-8.533-8.533-8.533c-5.12,0-8.533,3.413-8.533,8.533v13.653l-17.158-17.158
			c1.746-4.214,1.997-9.151,0.944-14.416c-1.707-6.827-5.973-14.507-11.947-20.48s-12.8-10.24-20.48-11.947
			c-8.533-1.707-16.213,0.853-21.333,5.973c-5.973,5.12-7.68,12.8-5.973,21.333c1.707,6.827,5.973,14.507,11.947,20.48
			c5.973,5.973,12.8,10.24,20.48,11.947c2.56,0.853,4.267,0.853,5.973,0.853c2.931,0,5.86-0.62,8.489-1.751l17.111,17.111h-13.653
			c-5.12,0-8.533,3.413-8.533,8.533c0,5.12,3.413,8.533,8.533,8.533h30.72l17.067,17.067H127c-5.12,0-8.533,3.413-8.533,8.533
			s3.413,8.533,8.533,8.533h56.32l17.153,17.153c-4.771,11.327-13.412,20.928-24.833,26.367l-12.717,6.056L124.44,206.36
			c-3.413-3.413-8.533-3.413-11.947,0s-3.413,8.533,0,11.947l28.16,28.16h-27.307l-23.04-23.04c-3.413-3.413-8.533-3.413-11.947,0
			s-3.413,8.533,0,11.947l11.093,11.093h-24.08c-4.65-10.103-17.37-17.067-32.24-17.067C14.36,229.4-1,240.493-1,255
			c0,14.507,15.36,25.6,34.133,25.6c14.87,0,27.59-6.963,32.24-17.067h24.08L78.36,274.627c-3.413,3.413-3.413,8.533,0,11.947
			c1.707,1.707,3.413,2.56,5.973,2.56s4.267-0.853,5.973-2.56l23.04-23.04h27.307l-28.16,28.16c-3.413,3.413-3.413,8.533,0,11.947
			c1.707,1.707,3.413,2.56,5.973,2.56s4.267-0.853,5.973-2.56l38.207-38.207l12.139,5.781c11.623,5.535,20.369,15.38,25.084,26.969
			l-16.551,16.551H127c-5.12,0-8.533,3.413-8.533,8.533S121.88,331.8,127,331.8h39.253l-17.067,17.067h-30.72
			c-5.12,0-8.533,3.413-8.533,8.533s3.413,8.533,8.533,8.533h13.653l-17.028,17.028c-10.081-4.639-24.696-0.904-35.879,10.279
			C65.56,406.893,63,425.667,73.24,435.907c4.267,4.267,10.24,5.973,16.213,5.973c2.56,0,4.267,0,5.12-0.853
			c6.827-1.707,14.507-5.973,20.48-11.947c5.973-5.973,10.24-12.8,11.947-20.48c0.93-4.65,0.585-9.043-0.743-12.91l17.81-17.81
			v13.653c0,5.12,3.413,8.533,8.533,8.533c4.267,0,8.533-3.413,8.533-8.533v-30.72l17.067-17.067V383
			c0,5.12,3.413,8.533,8.533,8.533s8.533-3.413,8.533-8.533v-56.32l8.533-8.533V331.8c0,3.413,1.707,5.973,5.12,7.68
			c3.413,1.707,6.827,0.853,9.387-0.853l4.267-3.413c7.26-5.682,15.456-9.256,23.893-10.734v20.974L206.36,385.56
			c-3.413,3.413-3.413,8.533,0,11.947c3.413,3.413,8.533,3.413,11.947,0l28.16-28.16v27.307l-23.04,23.04
			c-3.413,3.413-3.413,8.533,0,11.947c3.413,3.413,8.533,3.413,11.947,0l11.093-11.093v24.08
			c-10.103,4.65-17.067,17.37-17.067,32.24C229.4,495.64,240.493,511,255,511c14.507,0,25.6-15.36,25.6-34.133
			c0-14.87-6.963-27.59-17.067-32.24v-24.08l11.093,11.093c1.707,1.707,3.413,2.56,5.973,2.56s4.267-0.853,5.973-2.56
			c3.413-3.413,3.413-8.533,0-11.947l-23.04-23.04v-27.307l28.16,28.16c1.707,1.707,3.413,2.56,5.973,2.56s4.267-0.853,5.973-2.56
			c3.413-3.413,3.413-8.533,0-11.947l-40.107-40.107v-21.114c8.738,1.382,17.242,5.001,24.747,10.874l4.267,3.413
			c1.707,0.853,3.413,1.707,5.12,1.707c0.853,0,2.56,0,5.12-0.853c3.413-1.707,5.12-4.267,5.12-7.68v-11.947l6.827,6.827V383
			c0,5.12,3.413,8.533,8.533,8.533S331.8,388.12,331.8,383v-39.253l17.067,17.067v30.72c0,5.12,3.413,8.533,8.533,8.533
			s8.533-3.413,8.533-8.533V377.88l17.263,17.263c-3.645,10.398,0.256,24.149,10.897,34.791c7.68,7.68,17.92,11.947,26.453,11.947
			c5.973,0,11.093-1.707,15.36-6.827c5.973-5.12,7.68-12.8,5.973-21.333c-1.707-6.827-5.973-14.507-11.947-20.48
			c-10.375-11.066-24.673-14.843-35.172-10.425l-16.882-16.882h13.653c5.12,0,8.533-3.413,8.533-8.533s-3.413-8.533-8.533-8.533
			h-30.72L343.747,331.8H383c5.12,0,8.533-3.413,8.533-8.533s-3.413-8.533-8.533-8.533h-56.32l-15.324-15.324
			c4.586-12.12,13.533-22.467,25.564-28.196l10.809-5.404l37.831,37.831c1.707,1.707,3.413,2.56,5.973,2.56
			c2.56,0,4.267-0.853,5.973-2.56c3.413-3.413,3.413-8.533,0-11.947l-28.16-28.16h27.307l23.04,23.04
			c1.707,1.707,3.413,2.56,5.973,2.56s4.267-0.853,5.973-2.56c3.413-3.413,3.413-8.533,0-11.947l-11.093-11.093h24.08
			c4.65,10.103,17.37,17.067,32.24,17.067C495.64,280.6,511,269.507,511,255C511,240.493,495.64,229.4,476.867,229.4z
			 M103.96,110.787c-4.267-0.853-8.533-3.413-11.947-6.827c-3.413-3.413-5.973-7.68-6.827-11.947c-0.853-2.56,0-5.12,0.853-5.973
			c0.853-0.853,1.707-0.853,3.413-0.853c0.853,0,1.707,0,2.56,0c4.267,0.853,8.533,3.413,11.947,6.827s5.973,7.68,6.827,11.947
			c0.853,2.56,0,5.12-0.853,5.973S106.52,111.64,103.96,110.787z M315.198,246.467h-27.153c-0.818-3.149-2.082-6.122-3.712-8.854
			l12.765-12.765C301.517,233.148,307.646,240.551,315.198,246.467z M266.947,266.947c-0.3,0.3-0.564,0.617-0.812,0.942
			c-2.996,2.594-6.886,4.178-11.135,4.178c-9.387,0-17.067-7.68-17.067-17.067s7.68-17.067,17.067-17.067
			c4.249,0,8.139,1.585,11.135,4.178c0.247,0.324,0.512,0.642,0.812,0.942c0.342,0.342,0.685,0.64,1.034,0.913
			c2.54,2.982,4.086,6.833,4.086,11.034c0,4.249-1.584,8.139-4.178,11.135C267.564,266.382,267.247,266.646,266.947,266.947z
			 M406.04,92.013c3.413-3.413,7.68-5.973,11.947-6.827c0.853,0,1.707,0,2.56,0c1.707,0,2.56,0,3.413,0.853
			c2.56,2.56,1.707,10.24-5.973,17.92c-6.827,7.68-15.36,8.533-17.92,5.973S398.36,99.693,406.04,92.013z M289.133,195.267
			c0.141,4.103,0.666,8.156,1.535,12.118l-18.281,18.281c-2.732-1.63-5.705-2.894-8.854-3.712v-18.26
			C272.369,202.596,281.057,199.789,289.133,195.267z M255,16.067c3.413,0,8.533,6.827,8.533,17.067
			c0,10.24-5.12,17.067-8.533,17.067s-8.533-6.827-8.533-17.067C246.467,22.893,251.587,16.067,255,16.067z M220.867,195.267
			c8.076,4.523,16.764,7.33,25.6,8.428v18.26c-3.149,0.818-6.122,2.082-8.854,3.712l-18.227-18.227
			C220.223,203.493,220.728,199.426,220.867,195.267z M225.666,237.613c-1.63,2.732-2.894,5.705-3.712,8.854h-27.055
			c7.579-5.868,13.72-13.181,18.128-21.492L225.666,237.613z M33.133,263.533c-10.24,0-17.067-5.12-17.067-8.533
			s6.827-8.533,17.067-8.533c10.24,0,17.067,5.12,17.067,8.533S43.373,263.533,33.133,263.533z M194.802,263.533h27.153
			c0.818,3.149,2.082,6.122,3.712,8.854l-12.765,12.765C208.483,276.852,202.354,269.449,194.802,263.533z M110.787,405.187
			c-0.853,4.267-3.413,8.533-6.827,11.947s-7.68,5.973-11.947,6.827c-2.56,0.853-5.12,0-5.973-0.853
			c-2.56-2.56-1.707-10.24,5.973-17.92c5.12-5.12,11.093-6.827,14.507-6.827c1.116,0,1.864,0.362,2.489,0.615
			c0.276,0.378,0.578,0.746,0.924,1.092c0.293,0.293,0.588,0.551,0.885,0.794C111.188,402.039,111.312,403.611,110.787,405.187z
			 M220.867,314.733c-0.141-4.103-0.666-8.156-1.535-12.119l18.281-18.281c2.732,1.63,5.705,2.894,8.854,3.712v18.26
			C237.631,307.404,228.943,310.211,220.867,314.733z M255,493.933c-3.413,0-8.533-6.827-8.533-17.067S251.587,459.8,255,459.8
			s8.533,6.827,8.533,17.067S258.413,493.933,255,493.933z M289.133,314.733c-8.076-4.523-16.764-7.33-25.6-8.428v-18.26
			c3.149-0.818,6.122-2.082,8.854-3.712l18.227,18.227C289.777,306.507,289.272,310.574,289.133,314.733z M417.987,405.187
			c3.413,3.413,5.973,7.68,6.827,11.947c0.853,2.56,0,5.12-0.853,5.973c-2.56,2.56-10.24,1.707-17.92-5.973
			c-6.475-5.755-8.086-12.71-6.902-16.289c0.326-0.238,0.642-0.491,0.928-0.778c0.488-0.488,0.899-1.015,1.247-1.563
			c0.562-0.139,1.235-0.144,2.166-0.144C406.893,398.36,412.867,400.92,417.987,405.187z M284.334,272.387
			c1.63-2.732,2.894-5.705,3.712-8.854h27.055c-7.579,5.868-13.72,13.181-18.128,21.492L284.334,272.387z M476.867,263.533
			c-10.24,0-17.067-5.12-17.067-8.533s6.827-8.533,17.067-8.533s17.067,5.12,17.067,8.533S487.107,263.533,476.867,263.533z"/>
	</g>
</g>
<g>
</g>
<g>
</g>
<g>
</g>
<g>
</g>
<g>
</g>
<g>
</g>
<g>
</g>
<g>
</g>
<g>
</g>
<g>
</g>
<g>
</g>
<g>
</g>
<g>
</g>
<g>
</g>
<g>
</g>
</svg>
